<svg width="103" height="104" viewBox="0 0 103 104" fill="none" xmlns="http://www.w3.org/2000/svg">
<rect width="103" height="104" fill="#1E1E1E" style="fill:#1E1E1E;fill:color(display-p3 0.1176 0.1176 0.1176);fill-opacity:1;"/>
<rect width="1440" height="1024" transform="translate(-17.7344 -26)" fill="white" style="fill:white;fill:white;fill-opacity:1;"/>
<g clip-path="url(#clip0_0_1)">
<g filter="url(#filter0_d_0_1)">
<path d="M100.253 48.9C100.253 57.7479 97.8475 66.4287 93.2963 74.01C88.7444 81.5913 82.2177 87.7866 74.4178 91.9301C66.6173 96.0736 57.8386 98.009 49.0235 97.529C40.2085 97.0483 31.6906 94.1701 24.3847 89.2032C17.0789 84.2363 11.2612 77.3683 7.55644 69.3375C3.8517 61.3062 2.39997 52.4152 3.35718 43.6194C4.31438 34.8236 7.64435 26.4554 12.9894 19.4135C18.3345 12.3716 25.4926 6.92218 33.695 3.65063L51.6617 48.9H100.253Z" fill="#D9D9D9" style="fill:#D9D9D9;fill:color(display-p3 0.8510 0.8510 0.8510);fill-opacity:1;"/>
<path d="M38.6876 19.0443C38.8876 18.8986 39.1008 18.8059 39.3274 18.7661L50.2632 45.9069C50.3964 46.2381 50.6163 46.5228 50.9229 46.7613C51.2294 46.9865 51.6093 47.1652 52.0625 47.2978C52.5289 47.417 52.9288 47.5097 53.262 47.5759C53.6085 47.6289 54.0284 47.6818 54.5215 47.7349C54.5748 47.9468 54.6014 48.1256 54.6014 48.2713C54.6014 48.4302 54.5748 48.576 54.5215 48.7084C51.6426 48.6024 49.4901 48.5495 48.064 48.5495C46.5179 48.5495 44.2788 48.6024 41.3466 48.7084C41.2933 48.5495 41.2667 48.3905 41.2667 48.2316C41.2667 48.0594 41.2933 47.8938 41.3466 47.7349C44.0389 47.4434 45.3851 46.9401 45.3851 46.2248C45.3851 45.9996 45.3584 45.7678 45.3051 45.5294L42.4062 38.1382C41.5265 38.1117 40.3403 38.0984 38.8476 38.0984C38.1412 38.0984 36.3086 38.125 33.3497 38.1779L30.2909 45.9069V46.1454C30.2909 46.2778 30.3109 46.4036 30.3509 46.5228C30.4042 46.642 30.4842 46.748 30.5908 46.8407C30.7108 46.9334 30.824 47.0129 30.9306 47.0792C31.0373 47.1454 31.1839 47.2116 31.3705 47.2778C31.5704 47.3308 31.737 47.3772 31.8703 47.417C32.0169 47.4434 32.2101 47.4765 32.4501 47.5163C32.7033 47.556 32.8965 47.5891 33.0299 47.6157C33.1631 47.6289 33.3564 47.6487 33.6096 47.6752C33.8762 47.7017 34.0627 47.7216 34.1694 47.7349C34.2227 47.9468 34.2494 48.1256 34.2494 48.2713C34.2494 48.3508 34.2227 48.4965 34.1694 48.7084C31.1839 48.6024 29.5045 48.5495 29.1313 48.5495C28.4116 48.5495 26.559 48.6024 23.5735 48.7084C23.5202 48.5495 23.4935 48.3905 23.4935 48.2316C23.4935 48.0594 23.5202 47.8938 23.5735 47.7349C26.3457 47.417 27.9252 46.7414 28.3117 45.7082L36.9084 24.1704L36.4685 22.9981C37.2282 22.4948 37.7547 21.9517 38.0479 21.3689C38.3544 20.7861 38.5677 20.0112 38.6876 19.0443ZM38.8476 36.5487C40.0738 36.5487 41.0401 36.5355 41.7465 36.5089L37.9479 26.7335H37.868L34.0494 36.4692C35.3023 36.5222 36.9016 36.5487 38.8476 36.5487Z" fill="black" style="fill:black;fill:black;fill-opacity:1;"/>
<path d="M53.7591 49.7421C53.2527 47.3181 52.3197 45.4372 50.9602 44.0993C49.6141 42.7615 47.9947 42.0926 46.1021 42.0926C44.2495 42.0926 42.8101 42.5297 41.7838 43.4039C40.7709 44.2782 40.2644 45.4438 40.2644 46.9009C40.2644 47.7088 40.3377 48.3778 40.4843 48.9076C40.6309 49.4374 40.9308 49.954 41.384 50.4573C41.8371 50.9474 42.4969 51.3845 43.3632 51.7687C44.2295 52.1396 45.3624 52.4972 46.7619 52.8416C47.5215 53.0271 48.1813 53.1992 48.7411 53.3582C49.3142 53.5171 49.9406 53.7357 50.6204 54.0139C51.3134 54.2921 51.9065 54.5901 52.3996 54.908C52.9061 55.2259 53.406 55.6232 53.8991 56.1001C54.4056 56.5637 54.8121 57.0803 55.1186 57.6499C55.4385 58.2194 55.6917 58.895 55.8784 59.6765C56.0782 60.4447 56.1782 61.2859 56.1782 62.1999C56.1782 63.4184 55.9516 64.5442 55.4985 65.5774C55.0453 66.5972 54.4522 67.4587 53.7192 68.1606C52.9861 68.8626 52.1398 69.4583 51.1802 69.9485C50.2205 70.4387 49.2476 70.7967 48.2613 71.0217C47.275 71.2468 46.2954 71.3594 45.3225 71.3594C42.3636 71.3594 39.2115 70.5977 35.8661 69.0743C35.9328 67.6437 35.9661 66.7631 35.9661 66.4319C35.9661 64.2727 35.7861 62.1204 35.4263 59.9745C35.5729 59.8818 35.7195 59.8354 35.8661 59.8354C36.0527 59.8354 36.2193 59.8818 36.3659 59.9745C36.6458 61.6833 37.1056 63.1933 37.7454 64.5048C38.3984 65.8158 39.1448 66.856 39.9845 67.624C40.8242 68.3793 41.6905 68.9484 42.5835 69.333C43.4898 69.7037 44.4028 69.8894 45.3225 69.8894C47.415 69.8894 49.021 69.3528 50.1406 68.2795C51.2734 67.1936 51.8399 65.763 51.8399 63.9879C51.8399 62.1999 51.4201 60.8554 50.5804 59.9546C49.754 59.0407 48.168 58.2989 45.8222 57.7293C42.8901 57.0008 40.5976 55.9279 38.9449 54.5106C37.3055 53.08 36.4858 51.1925 36.4858 48.848C36.4858 47.6161 36.6858 46.5167 37.0857 45.5498C37.4988 44.5696 38.0253 43.788 38.665 43.2053C39.3181 42.6092 40.0778 42.1191 40.9441 41.735C41.8105 41.3376 42.6635 41.066 43.5031 40.9203C44.3561 40.7614 45.2225 40.6819 46.1021 40.6819C48.7411 40.6819 51.4867 41.2912 54.3389 42.5098C54.259 43.2913 54.219 44.1059 54.219 44.9537C54.219 46.9406 54.3789 48.5367 54.6988 49.7421C54.5255 49.8083 54.3789 49.8414 54.259 49.8414C54.1257 49.8414 53.9591 49.8083 53.7591 49.7421Z" fill="black" style="fill:black;fill:black;fill-opacity:1;"/>
<path d="M98.9747 59.9956C101.165 50.6168 100.53 40.7979 97.1514 31.7805C93.7735 22.7632 87.8033 14.9523 79.9958 9.33577C72.1883 3.71921 62.8943 0.549181 53.2892 0.226554C43.6843 -0.0960722 34.1995 2.44319 26.0344 7.52323L29.5766 13.2423C36.6131 8.86439 44.7869 6.67615 53.0643 6.95418C61.3417 7.23222 69.351 9.96407 76.0792 14.8043C82.8075 19.6445 87.953 26.3758 90.8639 34.1468C93.7754 41.9177 94.3224 50.3795 92.4351 58.4619L98.9747 59.9956Z" fill="#D9D9D9" style="fill:#D9D9D9;fill:color(display-p3 0.8510 0.8510 0.8510);fill-opacity:1;"/>
<path d="M64.1147 38.0509C65.0589 37.9615 65.9034 37.7578 66.6481 37.4399C66.7786 37.4946 66.863 37.5616 66.9034 37.6411C66.9034 43.269 66.9257 46.6367 66.9705 47.7444C66.9756 47.8736 67.0134 47.9853 67.0831 48.0797C67.158 48.1691 67.2629 48.2387 67.3979 48.2883C67.5329 48.338 67.6455 48.3752 67.7357 48.4001C67.8252 48.4199 67.9429 48.4398 68.0875 48.4597C68.108 48.5391 68.1176 48.6013 68.1176 48.646C68.1176 48.6758 68.108 48.7304 68.0875 48.8099C67.9129 48.8 67.7331 48.79 67.5482 48.7801C67.3678 48.7701 67.2258 48.7627 67.1209 48.7577C67.0159 48.7528 66.9181 48.7503 66.8285 48.7503C66.7536 48.7503 66.6686 48.7528 66.5732 48.7577C66.4786 48.7627 66.3487 48.7701 66.1836 48.7801C66.0186 48.79 65.8561 48.8 65.6961 48.8099C65.6712 48.8 65.6488 48.7876 65.629 48.7726C65.6136 48.7627 65.6015 48.7553 65.5912 48.7503C65.5861 48.7403 65.5791 48.7279 65.5688 48.713C65.5586 48.6931 65.5516 48.6807 65.5464 48.6758C65.5413 48.6708 65.5336 48.6559 65.524 48.6311C65.5189 48.6013 65.5138 48.5838 65.5087 48.5789C65.5285 48.4597 65.5388 48.1915 65.5388 47.7742C64.7141 48.5789 63.9519 48.9812 63.2522 48.9812C62.4825 48.9812 61.8553 48.6931 61.3705 48.117C60.8857 47.5407 60.6432 46.7559 60.6432 45.7625C60.6432 45.4198 60.6832 45.077 60.7631 44.7343C60.8431 44.3915 60.9756 44.0538 61.1605 43.721C61.3454 43.3882 61.5729 43.0951 61.8427 42.8418C62.1126 42.5885 62.455 42.3848 62.8698 42.2308C63.2847 42.0719 63.7445 41.9924 64.249 41.9924C64.6239 41.9924 65.0641 42.0719 65.5688 42.2308C65.5586 41.2871 65.5541 40.1123 65.5541 38.7066C65.2688 38.5427 64.789 38.4408 64.1147 38.4011C64.0942 38.3216 64.0846 38.262 64.0846 38.2223C64.0846 38.1875 64.0942 38.1304 64.1147 38.0509ZM63.9719 48.0052C64.4717 48.0052 64.9988 47.7394 65.5541 47.208C65.5637 46.7212 65.5688 45.7997 65.5688 44.4437V43.3633C65.224 42.7722 64.6968 42.4767 63.9867 42.4767C63.837 42.4767 63.6871 42.499 63.5371 42.5437C63.3871 42.5885 63.2272 42.6779 63.0573 42.812C62.8874 42.9461 62.7374 43.1175 62.6075 43.3261C62.4825 43.5347 62.3776 43.8253 62.2926 44.1978C62.2076 44.5654 62.1652 44.9901 62.1652 45.4719C62.1652 46.2071 62.3175 46.8131 62.6224 47.2899C62.9323 47.7668 63.3822 48.0052 63.9719 48.0052ZM75.105 44.8163H71.0189C70.999 45.1143 70.9894 45.3776 70.9894 45.606C71.0042 46.3461 71.2217 46.9397 71.6413 47.3868C72.061 47.8288 72.6234 48.0499 73.3284 48.0499C73.5184 48.0499 73.6956 48.03 73.8606 47.9903C74.0257 47.9456 74.1607 47.8959 74.2656 47.8413C74.3756 47.7866 74.4876 47.7071 74.6028 47.6029C74.7179 47.4985 74.8004 47.4166 74.8503 47.357C74.9054 47.2924 74.9777 47.198 75.0679 47.0738C75.1574 46.9447 75.2176 46.8627 75.2476 46.8279C75.3673 46.8528 75.4651 46.9074 75.54 46.9919C75.2899 47.6575 74.9028 48.1567 74.3776 48.4895C73.853 48.8173 73.2836 48.9812 72.6688 48.9812C72.3636 48.9812 72.0661 48.9415 71.7763 48.862C71.4916 48.7876 71.214 48.6633 70.944 48.4895C70.674 48.3157 70.4393 48.102 70.2397 47.8487C70.0394 47.5904 69.8795 47.27 69.7598 46.8876C69.6396 46.5001 69.5794 46.0729 69.5794 45.606C69.5794 44.5579 69.9019 43.6936 70.5467 43.0131C71.1916 42.3326 71.9836 41.9924 72.9234 41.9924C73.338 41.9924 73.6982 42.052 74.0033 42.1712C74.313 42.2855 74.5529 42.4419 74.723 42.6406C74.8977 42.8393 75.025 43.0578 75.105 43.2963C75.1901 43.5297 75.2323 43.7806 75.2323 44.0488C75.2323 44.2972 75.1901 44.553 75.105 44.8163ZM72.7436 42.4767C72.3988 42.4767 72.0713 42.6282 71.7616 42.9312C71.4565 43.2342 71.2364 43.6936 71.1014 44.3096H73.8005C73.8504 44.1208 73.8754 43.9569 73.8754 43.8178C73.8754 43.4304 73.7858 43.11 73.6054 42.8567C73.4256 42.6034 73.1384 42.4767 72.7436 42.4767ZM76.6493 38.0509C77.5994 37.9615 78.4413 37.7578 79.1757 37.4399C79.3107 37.4946 79.3983 37.5616 79.4386 37.6411C79.4386 43.269 79.4585 46.6367 79.4981 47.7444C79.5033 47.8487 79.5333 47.9431 79.5883 48.0275C79.6485 48.107 79.7131 48.1716 79.7835 48.2212C79.8532 48.2659 79.9485 48.3082 80.0682 48.3479C80.1884 48.3827 80.2806 48.4075 80.3458 48.4224C80.4155 48.4324 80.5083 48.4448 80.6228 48.4597C80.6529 48.5193 80.6682 48.5814 80.6682 48.646C80.6682 48.7106 80.6529 48.7652 80.6228 48.8099C79.9632 48.7801 79.3235 48.7652 78.7036 48.7652C78.0939 48.7652 77.4592 48.7801 76.7997 48.8099C76.7792 48.7304 76.7696 48.6758 76.7696 48.646C76.7696 48.6211 76.7792 48.559 76.7997 48.4597C76.9641 48.4398 77.0965 48.4199 77.197 48.4001C77.3019 48.3752 77.4317 48.338 77.5866 48.2883C77.7465 48.2387 77.8668 48.1691 77.9467 48.0797C78.0267 47.9853 78.0689 47.8736 78.0741 47.7444C78.0939 47.2527 78.1041 46.1524 78.1041 44.4437C78.1041 43.6539 78.1016 42.5785 78.0964 41.2175C78.0913 39.8565 78.0888 39.0195 78.0888 38.7066C77.8041 38.5427 77.3243 38.4408 76.6493 38.4011C76.6244 38.3366 76.6122 38.2769 76.6122 38.2223C76.6122 38.1726 76.6244 38.1155 76.6493 38.0509ZM85.9232 48.8099C85.2636 48.7801 84.4914 48.7652 83.6066 48.7652C82.9969 48.7652 82.3623 48.7801 81.7027 48.8099C81.6822 48.7304 81.6727 48.6758 81.6727 48.646C81.6727 48.6211 81.6822 48.559 81.7027 48.4597C81.8678 48.4398 82.0002 48.4199 82.1 48.4001C82.2049 48.3752 82.3348 48.338 82.4896 48.2883C82.6496 48.2387 82.7698 48.1691 82.8498 48.0797C82.9298 47.9853 82.972 47.8736 82.9771 47.7444C82.9969 47.2527 83.0072 45.6358 83.0072 42.8939H81.9951C81.965 42.8144 81.9497 42.7275 81.9497 42.6332C81.9497 42.5239 81.965 42.432 81.9951 42.3575H83.0072V41.5751C83.0072 41.0287 83.0769 40.5121 83.217 40.0254C83.3616 39.5336 83.5695 39.094 83.8395 38.7066C84.1139 38.3191 84.4741 38.0111 84.9188 37.7827C85.3685 37.5542 85.8733 37.4399 86.433 37.4399C86.9532 37.4399 87.3876 37.5716 87.7375 37.8348C88.0926 38.0931 88.2698 38.4359 88.2698 38.8631C88.2698 39.1263 88.1828 39.3548 88.0075 39.5485C87.8328 39.7422 87.6076 39.8391 87.3325 39.8391C87.0677 39.8391 86.8553 39.7745 86.6953 39.6453C86.5405 39.5113 86.4631 39.3424 86.4631 39.1387C86.4631 38.9947 86.506 38.8556 86.5904 38.7215C86.6806 38.5874 86.8054 38.493 86.9653 38.4383C86.8655 38.2744 86.7459 38.1701 86.6058 38.1254C86.4657 38.0757 86.2482 38.0509 85.9532 38.0509C85.4933 38.0509 85.1088 38.2148 84.7991 38.5427C84.494 38.8705 84.3417 39.3027 84.3417 39.8391V42.3575H85.9686C85.9987 42.432 86.0134 42.5239 86.0134 42.6332C86.0134 42.7275 85.9987 42.8144 85.9686 42.8939H84.3417C84.3417 45.3527 84.3615 46.9695 84.4012 47.7444C84.4063 47.8736 84.4562 47.9853 84.5515 48.0797C84.6462 48.1691 84.7838 48.2387 84.9635 48.2883C85.1439 48.338 85.2988 48.3752 85.4286 48.4001C85.5585 48.4199 85.7236 48.4398 85.9232 48.4597C85.9436 48.559 85.9532 48.6261 85.9532 48.6608C85.9532 48.7006 85.9436 48.7503 85.9232 48.8099ZM89.3945 40.7258C89.4444 40.7059 89.5019 40.696 89.5672 40.696C89.6318 40.696 89.6996 40.7059 89.7693 40.7258V42.3575H92.0411C92.0712 42.432 92.0859 42.5239 92.0859 42.6332C92.0859 42.7275 92.0712 42.8144 92.0411 42.8939H89.7693V46.8726C89.7693 47.6575 90.1315 48.0499 90.8563 48.0499C91.1314 48.0499 91.3662 47.9978 91.5613 47.8934C91.7609 47.7891 91.981 47.6326 92.2209 47.424C92.3456 47.439 92.4282 47.4985 92.4685 47.6029C92.2484 47.9953 91.9234 48.3231 91.4935 48.5863C91.0642 48.8496 90.5914 48.9812 90.0771 48.9812C88.8673 48.9812 88.2627 48.2535 88.2627 46.7981V42.8939H87.3402C87.3204 42.8045 87.3101 42.7474 87.3101 42.7226C87.3101 42.7176 87.3204 42.6605 87.3402 42.5512C87.5801 42.432 87.7625 42.3351 87.8878 42.2606C88.0177 42.1811 88.1802 42.0693 88.3747 41.9253C88.5749 41.7813 88.7547 41.6124 88.9146 41.4187C89.0797 41.22 89.2396 40.989 89.3945 40.7258Z" fill="black" style="fill:black;fill:black;fill-opacity:1;"/>
<g style="mix-blend-mode:multiply">
<path d="M96.7682 48.8999C96.7682 41.5285 94.968 34.269 91.5248 27.7544C88.0823 21.2398 83.1006 15.6679 77.0153 11.5246C70.9293 7.38129 63.9245 4.79236 56.611 3.98355C49.2975 3.17473 41.8976 4.1706 35.0564 6.88428L51.6618 48.8999H96.7682Z" fill="#C5F6C1" style="fill:#C5F6C1;fill:color(display-p3 0.7725 0.9647 0.7569);fill-opacity:1;"/>
</g>
</g>
</g>
<defs>
<filter id="filter0_d_0_1" x="-0.929321" y="0.199219" width="105.182" height="105.401" filterUnits="userSpaceOnUse" color-interpolation-filters="sRGB">
<feFlood flood-opacity="0" result="BackgroundImageFix"/>
<feColorMatrix in="SourceAlpha" type="matrix" values="0 0 0 0 0 0 0 0 0 0 0 0 0 0 0 0 0 0 127 0" result="hardAlpha"/>
<feOffset dy="4"/>
<feGaussianBlur stdDeviation="2"/>
<feComposite in2="hardAlpha" operator="out"/>
<feColorMatrix type="matrix" values="0 0 0 0 0 0 0 0 0 0 0 0 0 0 0 0 0 0 0.25 0"/>
<feBlend mode="normal" in2="BackgroundImageFix" result="effect1_dropShadow_0_1"/>
<feBlend mode="normal" in="SourceGraphic" in2="effect1_dropShadow_0_1" result="shape"/>
</filter>
<clipPath id="clip0_0_1">
<rect width="103" height="103" fill="white" style="fill:white;fill:white;fill-opacity:1;" transform="translate(0 0.123413)"/>
</clipPath>
</defs>
</svg>
